<svg id="Livello_1" data-name="Livello 1" xmlns="http://www.w3.org/2000/svg" viewBox="0 0 1920.6 1112.48"><defs><style>.cls-1{fill:#d60b52;}</style></defs><polygon class="cls-1" points="2 556.24 242.28 416.62 324.25 463.94 165.38 556.26 962.9 1016.71 1121.77 924.39 1203.7 971.69 963.42 1111.33 2 556.24"/><path class="cls-1" d="M238.29,415.46l80,46.17L159.39,554l799.52,461.6,158.87-92.32,79.94,46.15L959.43,1107.86,0,553.93,238.29,415.46m0-2.31-1,.58L-1,552.2l-3,1.74,3,1.72,959.43,553.93,1,.58,1-.58,238.29-138.48,3-1.74-3-1.72-79.94-46.15-1-.58-1,.58-157.87,91.74L163.38,553.94l155.88-90.58,3-1.74-3-1.72-80-46.17-1-.58Z" transform="translate(3.99 2.31)"/><polygon class="cls-1" points="379.46 498.12 479.88 278.39 857.57 219.7 952.66 274.6 573.6 333.51 473.54 552.44 379.46 498.12"/><path class="cls-1" d="M853.38,218.43l92.33,53.31L568.92,330.29,469.1,548.71,376.76,495.4,476.58,277l376.8-58.55m.39-2.08-.7.1L476.27,275l-1.06.17-.45,1L374.94,494.57l-.76,1.65,1.58.91,92.34,53.31,1.9,1.1.92-2L570.29,332.1,946,273.72l5.6-.87L946.71,270,854.38,216.7l-.61-.35Z" transform="translate(3.99 2.31)"/><polygon class="cls-1" points="1596.38 648.56 1755.26 556.24 957.74 95.8 798.87 188.12 716.89 140.79 957.18 1.16 1918.61 556.24 1678.32 695.87 1596.38 648.56"/><path class="cls-1" d="M953.19,0l959.43,553.93L1674.33,692.4l-79.94-46.15,158.87-92.32L953.75,92.33,794.88,184.65l-80-46.17L953.19,0m0-2.31-1,.58L713.9,136.75l-3,1.74,3,1.72,80,46.17,1,.58,1-.58L953.75,94.64l795.52,459.3-155.88,90.58-3,1.74,3,1.72,79.94,46.15,1,.58,1-.58,238.29-138.47,3-1.74-3-1.72L954.19-1.73l-1-.58Z" transform="translate(3.99 2.31)"/><polygon class="cls-1" points="967.97 837.9 1347.01 779.02 1447.1 560.07 1541.14 614.36 1440.69 834.12 1063.05 892.79 967.97 837.9"/><path class="cls-1" d="M1443.56,559.17l92.3,53.29L1436,830.9l-376.76,58.54-92.31-53.3,376.76-58.53,99.86-218.44m-.9-2.83-.92,2L1342.33,775.8l-375.7,58.36L961,835l4.91,2.84,92.31,53.3.61.35.7-.1,376.76-58.54,1.06-.17.45-1,99.85-218.44.76-1.65-1.58-.91-92.3-53.29-1.9-1.1Z" transform="translate(3.99 2.31)"/></svg>