<svg id="Livello_1" data-name="Livello 1" xmlns="http://www.w3.org/2000/svg" viewBox="0 0 1920 1209.88"><defs><style>.cls-1{isolation:isolate;}.cls-2{fill:#424242;}.cls-3{fill:#737373;}.cls-4{fill:#535353;}.cls-5{fill:#404040;}.cls-6{fill:#e9e9e9;}</style></defs><g class="cls-1"><polygon class="cls-2" points="957.05 4.11 956.77 102.02 722 238.45 722.28 140.54 957.05 4.11"/><polygon class="cls-3" points="798.7 188.75 798.42 286.65 714.9 238.43 715.18 140.53 798.7 188.75"/><polygon class="cls-3" points="1912.93 555.99 1912.65 653.89 956.77 102.02 957.05 4.11 1912.93 555.99"/><polygon class="cls-2" points="957.53 96.44 957.26 194.34 798.42 286.65 798.7 188.75 957.53 96.44"/><polygon class="cls-3" points="944.71 273.05 944.43 370.95 856.19 320 856.46 222.1 944.71 273.05"/><polygon class="cls-4" points="856.46 222.1 856.19 320 482.19 378.11 482.47 280.2 856.46 222.1"/><polygon class="cls-4" points="954.37 274.54 954.09 372.44 574.53 431.42 574.8 333.51 954.37 274.54"/><polygon class="cls-3" points="318.54 463.68 318.26 561.58 241.87 517.47 242.15 419.57 318.54 463.68"/><polygon class="cls-5" points="482.47 280.2 482.19 378.11 383.1 594.93 383.37 497.03 482.47 280.2"/><polygon class="cls-3" points="1753.51 555.99 1753.23 653.89 957.26 194.34 957.53 96.44 1753.51 555.99"/><polygon class="cls-5" points="574.8 333.51 574.53 431.42 473.95 651.47 474.23 553.56 574.8 333.51"/><polygon class="cls-3" points="474.23 553.56 473.95 651.47 377.53 595.79 377.81 497.89 474.23 553.56"/><path class="cls-6" d="M954.13,627.6l-379.56,59L474,906.63,377.57,851,478.14,630.91l379.57-59ZM471.38,901l99.1-216.82,374-58.11-88.24-51-374,58.11L383.14,850.09,471.38,901" transform="translate(0.24 -353.06)"/><polygon class="cls-2" points="242.15 419.57 241.87 517.47 7.1 653.9 7.38 556 242.15 419.57"/><polygon class="cls-2" points="325.61 463.68 325.33 561.58 166.46 653.9 166.74 556 325.61 463.68"/><polygon class="cls-3" points="1536.9 614.95 1536.63 712.85 1448.41 661.92 1448.69 564.02 1536.9 614.95"/><polygon class="cls-2" points="1760.61 555.97 1760.33 653.88 1601.46 746.2 1601.74 648.3 1760.61 555.97"/><path class="cls-6" d="M956.76,353.06l963,556L1678,1049.58l-83.52-48.22,158.84-92.3L957.3,449.5,798.46,541.81,715,493.59Zm721.17,692.43L1912.7,909.06,956.81,357.18,722.05,493.61l76.39,44.1,158.87-92.32L1760.37,909l-158.87,92.32,76.43,44.13" transform="translate(0.24 -353.06)"/><polygon class="cls-2" points="1920 555.99 1919.72 653.89 1677.91 794.42 1678.19 696.52 1920 555.99"/><polygon class="cls-3" points="1678.19 696.52 1677.91 794.42 1594.39 746.2 1594.67 648.3 1678.19 696.52"/><polygon class="cls-5" points="1448.69 564.02 1448.41 661.92 1349.32 878.74 1349.59 780.84 1448.69 564.02"/><polygon class="cls-5" points="1542.47 614.08 1542.19 711.98 1441.62 932.03 1441.9 834.13 1542.47 614.08"/><polygon class="cls-4" points="1349.59 780.84 1349.32 878.74 975.32 936.85 975.6 838.95 1349.59 780.84"/><path class="cls-6" d="M1542.24,967.15,1441.66,1187.2l-379.56,59-96.42-55.67,379.59-59,100.54-220.06Zm-478.66,275.79,374-58.11L1536.67,968l-88.22-50.93-99.09,216.82-374,58.11,88.22,50.93" transform="translate(0.24 -353.06)"/><polygon class="cls-3" points="1062.34 893.11 1062.06 991.01 965.63 935.34 965.91 837.44 1062.34 893.11"/><polygon class="cls-4" points="1441.9 834.13 1441.62 932.03 1062.06 991.01 1062.34 893.11 1441.9 834.13"/><polygon class="cls-3" points="1198.03 971.45 1197.75 1069.35 1121.33 1025.23 1121.6 927.33 1198.03 971.45"/><polygon class="cls-2" points="1121.6 927.33 1121.33 1025.23 962.46 1117.55 962.73 1019.65 1121.6 927.33"/><polygon class="cls-3" points="962.73 1019.65 962.46 1117.55 159.39 653.9 159.67 556 962.73 1019.65"/><polygon class="cls-2" points="1205.1 971.45 1204.82 1069.35 963.01 1209.88 963.28 1111.97 1205.1 971.45"/><path class="cls-6" d="M1121.34,1276.29l83.52,48.22L963.05,1465,0,909.05,241.86,768.52l83.51,48.22L166.5,909.06l796,459.56ZM963,1460.94l234.76-136.43-76.42-44.12L962.5,1372.71,159.43,909.06,318.3,816.74l-76.39-44.11L7.14,909.07,963,1460.94" transform="translate(0.24 -353.06)"/><polygon class="cls-3" points="963.28 1111.97 963.01 1209.88 0 653.88 0.28 555.98 963.28 1111.97"/></g></svg>