<svg id="Livello_1" data-name="Livello 1" xmlns="http://www.w3.org/2000/svg" viewBox="0 0 1919.72 1111.97"><defs><style>.cls-1{fill:#d60b52;}</style></defs><path class="cls-1" d="M956.62,808.08,714.81,948.61l83.51,48.22,158.84-92.31,796,459.56-158.83,92.3,83.51,48.22,241.82-140.52Zm721.17,692.43-76.42-44.13,158.87-92.32L957.17,900.41,798.3,992.73l-76.39-44.1L956.67,812.2l955.89,551.88Z" transform="translate(0.1 -808.08)"/><path class="cls-1" d="M1345.13,1586.56l-379.59,59,96.42,55.67,379.56-59,100.58-220-96.43-55.68ZM1536.53,1423l-99.1,216.82-374,58.11L975.23,1647l374-58.11,99.1-216.82Z" transform="translate(0.1 -808.08)"/><path class="cls-1" d="M574.43,1141.6l379.56-59L857.57,1027l-379.56,59L377.43,1306l96.43,55.67ZM383,1305.11l99.09-216.82,374-58.11,88.25,51-374,58.11-99.09,216.82Z" transform="translate(0.1 -808.08)"/><path class="cls-1" d="M962.34,1823.64l-796-459.56,158.87-92.32-83.51-48.22L-.1,1364.07l963,556,241.81-140.53-83.51-48.22Zm235.31-44.11L962.89,1916,7,1364.09l234.77-136.44,76.39,44.11-158.87,92.32,803.07,463.65,158.87-92.32Z" transform="translate(0.1 -808.08)"/></svg>