<svg id="Livello_1" data-name="Livello 1" xmlns="http://www.w3.org/2000/svg" viewBox="0 0 14.66 11.63"><defs><style>.cls-1{fill:#fff;}</style></defs><path class="cls-1" d="M8,9.74A2.56,2.56,0,0,1,5.42,7.16,2.56,2.56,0,0,1,8,4.58a2.56,2.56,0,0,1,2.58,2.58A2.56,2.56,0,0,1,8,9.74ZM2.42,15.42V14a1.43,1.43,0,0,1,.23-.84,1.82,1.82,0,0,1,.63-.6,10.34,10.34,0,0,1,2.27-1A9.18,9.18,0,0,1,8,11.26h.77a2.22,2.22,0,0,0-.14.55c0,.18-.05.36-.08.53l-.55,0a8.62,8.62,0,0,0-2.1.25,6.89,6.89,0,0,0-2,.87.68.68,0,0,0-.28.23.61.61,0,0,0-.08.3v.35H8.73a4.4,4.4,0,0,0,.18.55,3.71,3.71,0,0,0,.26.53Zm11,.79-.19-1a2.21,2.21,0,0,1-.64-.26,2.41,2.41,0,0,1-.54-.41l-1,.35-.43-.74.76-.7a1.64,1.64,0,0,1-.12-.7,2,2,0,0,1,.12-.7l-.75-.7.42-.76,1,.33a2,2,0,0,1,.55-.44,2.05,2.05,0,0,1,.65-.24l.21-1h.85l.2,1a3.09,3.09,0,0,1,.66.25,2.08,2.08,0,0,1,.55.41l1-.29.43.72-.73.68a3,3,0,0,1,.09.73,2.4,2.4,0,0,1-.11.71l.76.68-.43.74-1-.33a2.79,2.79,0,0,1-.54.42,1.79,1.79,0,0,1-.65.25l-.22,1Zm.44-2.09a1.37,1.37,0,0,0,1-.42,1.41,1.41,0,0,0,.41-1,1.42,1.42,0,0,0-1.43-1.41,1.39,1.39,0,0,0-1,.41,1.41,1.41,0,0,0-.41,1,1.34,1.34,0,0,0,.42,1A1.36,1.36,0,0,0,13.84,14.12ZM8,8.66a1.44,1.44,0,0,0,1.06-.44A1.47,1.47,0,0,0,9.5,7.16,1.44,1.44,0,0,0,9.06,6.1,1.47,1.47,0,0,0,8,5.66a1.44,1.44,0,0,0-1.06.44A1.47,1.47,0,0,0,6.5,7.16a1.44,1.44,0,0,0,.44,1.06A1.47,1.47,0,0,0,8,8.66Z" transform="translate(-2.42 -4.58)"/></svg>