<svg id="Livello_1" data-name="Livello 1" xmlns="http://www.w3.org/2000/svg" viewBox="0 0 15.17 15.17"><defs><style>.cls-1{fill:#fff;}</style></defs><path class="cls-1" d="M2.67,11.81A8.17,8.17,0,0,1,5,10.67a8.91,8.91,0,0,1,5.15,0,8.17,8.17,0,0,1,2.34,1.14,6,6,0,0,0,1.18-1.94,6.45,6.45,0,0,0,.4-2.29A6.26,6.26,0,0,0,12.18,3a6.28,6.28,0,0,0-4.6-1.9A6.28,6.28,0,0,0,3,3a6.3,6.3,0,0,0-1.9,4.6,6.46,6.46,0,0,0,.41,2.29A5.78,5.78,0,0,0,2.67,11.81ZM7.58,8.87a2.69,2.69,0,0,1-2-.81,2.66,2.66,0,0,1-.82-2,2.66,2.66,0,0,1,.82-2,2.66,2.66,0,0,1,2-.82,2.66,2.66,0,0,1,2,.82,2.69,2.69,0,0,1,.81,2A2.77,2.77,0,0,1,7.58,8.87Zm0,6.3A7.54,7.54,0,0,1,2.22,13,7.54,7.54,0,0,1,0,7.57,7.5,7.5,0,0,1,2.22,2.22,7.39,7.39,0,0,1,4.63.59a7.56,7.56,0,0,1,3-.59A7.5,7.5,0,0,1,13,2.22a7.55,7.55,0,0,1,1.63,2.41,7.47,7.47,0,0,1,.59,3,7.47,7.47,0,0,1-.59,2.95,7.65,7.65,0,0,1-4,4.05A7.47,7.47,0,0,1,7.59,15.17Zm0-1.09a6.3,6.3,0,0,0,2.18-.38,6.54,6.54,0,0,0,1.94-1.1,7.83,7.83,0,0,0-1.94-.91,7.46,7.46,0,0,0-2.18-.32,8,8,0,0,0-2.19.31,6.25,6.25,0,0,0-1.93.92,6.72,6.72,0,0,0,2,1.1A6.28,6.28,0,0,0,7.58,14.08Zm0-6.29A1.71,1.71,0,0,0,9.29,6.08,1.72,1.72,0,0,0,7.58,4.37a1.61,1.61,0,0,0-1.2.51,1.61,1.61,0,0,0-.51,1.2A1.72,1.72,0,0,0,7.58,7.79Z"/></svg>