<svg id="Livello_1" data-name="Livello 1" xmlns="http://www.w3.org/2000/svg" viewBox="0 0 14 14"><defs><style>.cls-1{fill:#fff;}</style></defs><path class="cls-1" d="M4.5,15.5H5.56l7.82-7.81L12.31,6.62,4.5,14.44ZM3,17V13.81L13.38,3.44a1.32,1.32,0,0,1,.49-.34,1.54,1.54,0,0,1,.56-.1,1.56,1.56,0,0,1,.57.1,1.35,1.35,0,0,1,.5.34L16.56,4.5a1.35,1.35,0,0,1,.34.5,1.49,1.49,0,0,1,.1.55,1.65,1.65,0,0,1-.1.58,1.45,1.45,0,0,1-.34.49L6.19,17ZM15.5,5.56,14.44,4.5ZM12.83,7.17l-.52-.55,1.07,1.07Z" transform="translate(-3 -3)"/></svg>