<svg id="Livello_1" data-name="Livello 1" xmlns="http://www.w3.org/2000/svg" viewBox="0 0 850.39 340.16"><defs><style>.cls-1{fill:#fff;}</style></defs><path class="cls-1" d="M237.27-74.54V95.54H208.92V-74.54ZM38.85,67.19V-74.54H10.5V95.54H180.58V67.19Zm315-56.69,49.09,85H435.7l-49.1-85Zm-88.25-85v28.35H407.35V10.5H435.7v-85Zm-422,0,49.1,85-49.1,85h32.73l49.1-85-49.1-85Zm-258.33-85v85h28.35v-56.69h283.46v56.69h28.35v-85Zm49.1,85-49.1,85,49.1,85h32.73L-382,10.5l49.09-85Zm262.71,226.77H-386.35V95.54H-414.7v85H-74.54v-85h-28.35Z" transform="translate(414.7 159.58)"/></svg>