<svg id="Livello_1" data-name="Livello 1" xmlns="http://www.w3.org/2000/svg" viewBox="0 0 15.79 13"><defs><style>.cls-1{fill:#fff;}</style></defs><path class="cls-1" d="M8,10a2.86,2.86,0,0,1-2.12-.88A2.86,2.86,0,0,1,5,7,3,3,0,0,1,8,4a3,3,0,0,1,3,3,3,3,0,0,1-3,3ZM2,16V14.08a2,2,0,0,1,.26-1A2.07,2.07,0,0,1,3,12.37a10.53,10.53,0,0,1,2.42-1A9.82,9.82,0,0,1,8,11h.43l.42,0a3.79,3.79,0,0,0-.21.73q-.08.38-.12.75L8,12.5a8.65,8.65,0,0,0-2.21.29,8.31,8.31,0,0,0-2.06.88.46.46,0,0,0-.17.17.48.48,0,0,0-.06.24v.42H8.73a5.89,5.89,0,0,0,.27.77,4.76,4.76,0,0,0,.4.73Zm11.31,1-.25-1.17a3.43,3.43,0,0,1-.55-.25,3.23,3.23,0,0,1-.49-.33l-1.14.35-.67-1.14.85-.84A2,2,0,0,1,11,13a3.79,3.79,0,0,1,.07-.6l-.85-.82.67-1.16,1.12.33a2.54,2.54,0,0,1,.5-.36,2.1,2.1,0,0,1,.56-.24L13.33,9h1.34l.27,1.17a4,4,0,0,1,.56.25,2.15,2.15,0,0,1,.5.35l1.13-.31.66,1.14-.83.8A4.21,4.21,0,0,1,17,13a2.91,2.91,0,0,1-.06.6l.85.82-.66,1.14L16,15.25a4.26,4.26,0,0,1-.49.34,1.92,1.92,0,0,1-.55.24L14.65,17ZM14,14.5a1.44,1.44,0,0,0,1.06-.44A1.47,1.47,0,0,0,15.5,13a1.44,1.44,0,0,0-.44-1.06A1.47,1.47,0,0,0,14,11.5a1.44,1.44,0,0,0-1.06.44A1.47,1.47,0,0,0,12.5,13a1.44,1.44,0,0,0,.44,1.06A1.47,1.47,0,0,0,14,14.5Zm-6-6a1.44,1.44,0,0,0,1.06-.44A1.47,1.47,0,0,0,9.5,7a1.44,1.44,0,0,0-.44-1.06A1.47,1.47,0,0,0,8,5.5a1.44,1.44,0,0,0-1.06.44A1.47,1.47,0,0,0,6.5,7a1.44,1.44,0,0,0,.44,1.06A1.47,1.47,0,0,0,8,8.5Z" transform="translate(-2 -4)"/></svg>