<svg id="Livello_1" data-name="Livello 1" xmlns="http://www.w3.org/2000/svg" viewBox="0 0 16 16"><defs><style>.cls-1{fill:#fff;}</style></defs><path class="cls-1" d="M12.79,13.54l1.06-1.06-3.1-3.11V5H9.25v5ZM10,18a7.75,7.75,0,0,1-3.11-.63,7.94,7.94,0,0,1-4.26-4.26,8,8,0,0,1,0-6.24A7.9,7.9,0,0,1,4.34,4.33,8.28,8.28,0,0,1,6.89,2.62,8,8,0,0,1,10,2a7.84,7.84,0,0,1,3.12.63,8,8,0,0,1,4.24,4.25A7.77,7.77,0,0,1,18,10a7.92,7.92,0,0,1-.62,3.11,8.28,8.28,0,0,1-1.71,2.55A8,8,0,0,1,10,18Zm0-1.5a6.23,6.23,0,0,0,4.59-1.91A6.26,6.26,0,0,0,16.5,10,6.22,6.22,0,0,0,14.6,5.4,6.22,6.22,0,0,0,10,3.5a6.26,6.26,0,0,0-4.6,1.9A6.23,6.23,0,0,0,3.5,10a6.27,6.27,0,0,0,1.91,4.6A6.27,6.27,0,0,0,10,16.5Z" transform="translate(-2 -2)"/></svg>