<svg id="Livello_1" data-name="Livello 1" xmlns="http://www.w3.org/2000/svg" viewBox="0 0 340.16 340.16"><defs><style>.cls-1{fill:#d60b52;}.cls-2{fill:#fff;stroke:#fff;stroke-miterlimit:10;stroke-width:0.25px;}</style></defs><circle class="cls-1" cx="170.08" cy="170.08" r="170.08"/><path class="cls-2" d="M-366.81,496.39h-28.34V468h56.69v28.35Zm-28.34,0H-423.5v28.34h28.35Zm85,28.34V496.39h-28.35v28.34Zm85,85v85h-28.34V666.46h-28.35v28.35h-56.69v28.35h-56.69V694.81h-56.7V666.46h-28.34v28.35h-28.35v-85h28.35V553.08h28.34V524.73h28.35v28.35h113.39V524.73h28.34v28.35h28.35v56.69Zm-226.77,28.35h56.7v-56.7h-56.7v56.7Zm170.08,0v-56.7h-56.69v56.7h56.69Zm-198.42,56.69v28.35h28.34V694.81Zm198.42,28.35h28.35V694.81h-28.35Zm-170.08,0V751.5h56.7V723.16h-56.7Zm113.39,0V751.5h56.69V723.16h-56.69Z" transform="translate(536.89 -439.69)"/></svg>