<svg id="Livello_1" data-name="Livello 1" xmlns="http://www.w3.org/2000/svg" viewBox="0 0 340.16 340.16"><defs><style>.cls-1{fill:#d60b52;}.cls-2{fill:#fff;}</style></defs><circle class="cls-1" cx="170.08" cy="170.08" r="170.08"/><path class="cls-2" d="M-166.74-116v28.34h-28.35V-116Zm-28.35,85V25.74h56.69V-30.95h-56.69ZM-25,25.74H31.68V-30.95H-25V25.74ZM-53.36,82.43H-166.74v28.35h28.34v28.34H-110V110.78h56.69v28.34H-25V110.78H3.33V82.43H-53.36Zm0-198.42v-28.35H-110V-116h56.69Zm85,0H3.33v28.34H31.68Zm-85,56.69v28.35H-25V-59.3ZM-166.74-87.65V-59.3h28.34V-87.65Zm170.07,0H-25V-59.3H3.33ZM-138.4-59.3v28.35H-110V-59.3ZM-110-30.95v85h56.69v-85H-110Z" transform="translate(251.78 172.69)"/></svg>