<svg id="Livello_1" data-name="Livello 1" xmlns="http://www.w3.org/2000/svg" viewBox="0 0 340.16 340.16"><defs><style>.cls-1{fill:#d60b52;}.cls-2{fill:#fff}</style></defs><circle class="cls-1" cx="170.08" cy="170.08" r="170.08"/><path class="cls-2" d="M573.14,173.23V144.88h28.35v28.35Zm28.35,56.69h56.69V201.57H601.49ZM573.14,116.53H544.79v28.35h28.35Zm113.39,28.35H658.18v28.35h28.35Zm28.34-28.35H686.53v28.35h28.34Zm0-28.34V59.84H658.18V88.19h56.69Zm28.35,85V144.88H714.87v28.35Zm-56.69,28.34h28.34V173.23H686.53Zm-85-113.38V59.84h-56.7V88.19h56.7Zm85,198.42h28.34V258.26H686.53Zm28.34-56.69v28.34h28.35V229.92Zm-85,56.69H573.14V315H686.53V286.61h-56.7Zm113.39-28.35v28.35h28.35V258.26ZM544.79,201.57h28.35V173.23H544.79Zm0-56.69H516.45v28.35h28.34ZM488.1,286.61h28.35V258.26H488.1Zm28.35-56.69v28.34h28.34V229.92Zm28.34,28.34v28.35h28.35V258.26Z" transform="translate(-459.75 -31.49)"/></svg>