<svg id="Livello_1" data-name="Livello 1" xmlns="http://www.w3.org/2000/svg" viewBox="0 0 340.16 340.16"><defs><style>.cls-1{fill:#d60b51;}.cls-2{fill:#fff;}</style></defs><circle class="cls-1" cx="170.08" cy="170.08" r="170.08"/><path class="cls-2" d="M419.54,399.64V428H391.2V399.64Zm141.74,0H532.93V428h28.35ZM419.54,428v28.34h28.35V428Zm113.39,0H504.58v28.34h28.35Zm28.35,113.38V513H532.93v28.34H504.58V513h28.35V484.68H504.58V456.33H447.89v28.35H419.54V513h28.35v28.34H419.54V513H391.2v28.34H362.85v28.35H391.2v56.69h28.34V569.72H532.93v56.69h28.35V569.72h28.34V541.37Zm-141.74,85v28.35h28.35V626.41Zm85,28.35h28.35V626.41H504.58Zm-56.69,0v28.35h56.69V654.76H447.89Z" transform="translate(-306.16 -371.29)"/></svg>