<svg id="Livello_1" data-name="Livello 1" xmlns="http://www.w3.org/2000/svg" viewBox="0 0 340.16 340.16"><defs><style>.cls-1{fill:#d60b51;}.cls-2{fill:#fff;}</style></defs><circle class="cls-1" cx="170.08" cy="170.08" r="170.08"/><path class="cls-2" d="M881.41,661.42v-85H853.06V548H824.71v28.34H711.33V548H683v28.34H654.63v85H626.29v56.7h28.34v56.69H683V718.12h28.35V689.77h28.34v-85h56.7v85h28.34v28.35h28.35v56.69h28.35V718.12h28.34v-56.7Zm-170.08,0H683V633.08h28.35Zm113.38-28.34h28.35v28.34H824.71ZM711.33,746.46V718.12H824.71v28.34H711.33Zm113.38,28.35h28.35v28.35H824.71V831.5H711.33V803.16H683V774.81h56.69v28.35h56.7V774.81Z" transform="translate(-597.94 -519.69)"/></svg>