<svg id="Livello_1" data-name="Livello 1" xmlns="http://www.w3.org/2000/svg" viewBox="0 0 14 13.69"><defs><style>.cls-1{fill:#fffff3;}</style></defs><path class="cls-1" d="M11.5,16.83V15.27a5.25,5.25,0,0,0,2.9-1.95A5.41,5.41,0,0,0,15.5,10a5.26,5.26,0,0,0-1.11-3.3,5.64,5.64,0,0,0-2.89-2V3.15a6.77,6.77,0,0,1,4,2.43A6.82,6.82,0,0,1,17,10a6.92,6.92,0,0,1-1.53,4.41A6.67,6.67,0,0,1,11.5,16.83ZM3,12V8H6l4-4V16L6,12Zm8.5,1.14V6.83A3.25,3.25,0,0,1,13,8.1,3.54,3.54,0,0,1,13.5,10,3.44,3.44,0,0,1,13,11.84,3.33,3.33,0,0,1,11.5,13.12Z" transform="translate(-3 -3.15)"/></svg>